<svg width="171" height="255" xmlns="http://www.w3.org/2000/svg" xmlns:xlink="http://www.w3.org/1999/xlink" overflow="hidden"><defs><clipPath id="clip0"><rect x="127" y="197" width="171" height="255"/></clipPath></defs><g clip-path="url(#clip0)" transform="translate(-127 -197)"><path d="M448.623 155.215 1249.73 155.215 1249.73 605.841 448.623 605.841Z" fill="#FFFFFF" transform="matrix(1.00213 0 0 1 -532.915 -46.8806)"/><path d="M658.414 238.832 828.65 238.832 828.65 496.189 658.414 496.189Z" stroke="#2F528F" stroke-width="0.834492" stroke-miterlimit="8" fill="#4472C4" transform="matrix(1.00213 0 0 1 -532.915 -46.8806)"/><path d="M674.436 253.852 808.623 253.852 808.623 484.172 674.436 484.172Z" stroke="#2F528F" stroke-width="0.834492" stroke-miterlimit="8" fill="#FFFFFF" transform="matrix(1.00213 0 0 1 -532.915 -46.8806)"/><path d="M696.735 278.572C702.068 278.678 765.701 279.725 766.712 280.735 774.908 288.911 743.593 282.383 732.033 283.206 723.674 282.485 715.244 282.333 706.953 281.044 706.301 280.942 707.579 279.747 708.192 279.499 717.055 275.903 725.969 272.366 735.13 269.612 757.677 262.835 765.188 264.925 744.729 266.215 729.05 267.202 713.356 267.952 697.664 268.686 693.539 268.879 689.407 268.892 685.278 268.994 695.415 269.875 761.569 275.443 766.712 276.718 769.071 277.303 767.745 281.456 768.262 283.824 753.708 288.973 738.33 292.219 724.602 299.271 686.621 318.785 686.199 316.105 701.689 324.606 734.304 324.296 766.931 322.772 799.534 323.678 800.968 323.718 803.111 327.121 801.702 327.387 784.766 330.574 767.313 330.19 750.302 332.947 731.041 336.069 712.114 340.98 693.019 344.996 718.628 365.603 695.004 349.747 761.449 354.883 771.245 355.64 780.853 357.972 790.555 359.517 789.42 362.092 788.926 365.058 787.149 367.241 774.148 383.206 768.764 385.406 752.47 396.9 751.747 398.136 748.901 400.305 750.302 400.607 758.483 402.372 767.036 401.218 775.383 401.843 783.555 402.455 791.69 403.49 799.844 404.314 781.303 405.085 746.222 404.983 728.009 411.73 724.52 413.021 723.88 417.908 721.816 420.997 726.357 421.925 730.921 422.747 735.44 423.778 746.714 426.352 758.709 426.931 769.19 431.81 771.374 432.828 770.008 437.665 767.951 438.916 758.337 444.768 731.868 452.403 719.339 457.145 715.534 458.585 707.402 462.731 703.857 464.868 701.309 466.404 698.902 468.164 696.426 469.811 694.775 472.386 692.991 474.881 691.471 477.535 691.058 478.256 690.857 479.148 690.233 479.698 689.052 480.737 686.208 482.169 686.208 482.169 684.247 481.963 682.271 481.862 680.324 481.552 679.662 481.445 677.607 480.59 676.919 480.316 677.022 479.595 676.866 478.786 677.228 478.153 677.735 477.268 678.741 475.208 679.395 475.991 680.264 477.031 679.14 478.702 678.776 480.006 678.615 480.585 677.618 482.106 677.847 481.552 679.519 477.5 683.111 469.503 683.111 469.503 682.802 471.46 682.523 473.421 682.182 475.373 682.109 475.791 681.873 477.033 681.873 476.609 681.873 473.003 684.624 468.453 682.182 465.795 680.373 463.826 679.706 470.532 678.467 472.901 678.053 474.549 677.017 476.159 677.228 477.844 677.349 478.808 678.31 476.225 678.776 475.373 679.549 473.957 682.42 470.393 680.943 471.047 678.672 472.054 677.641 474.755 675.99 476.609 675.474 477.948 674.352 482.056 674.441 480.624 674.672 476.942 676.409 471.281 677.538 467.34 678.195 490.271 677.507 474.369 678.157 469.503 679.203 461.678 679.798 460.93 682.182 454.982 682.079 459.513 681.421 464.066 681.873 468.576 682.022 470.068 682.755 465.708 683.111 464.25 683.787 461.483 684.359 458.692 684.969 455.909 685.081 455.396 685.407 453.854 685.278 454.364 681.819 468.172 684.346 462.096 679.706 471.356 679.395 468.061 679.022 464.77 678.776 461.47 678.608 459.209 679.135 452.505 678.467 454.673 677.4 458.131 677.847 461.881 677.538 465.486 677.435 468.061 674.971 474.462 677.228 473.21 680.081 471.629 679.477 467.086 680.324 463.941 681.338 460.177 681.944 456.313 682.802 452.51 682.873 452.193 683.179 451.264 683.111 451.584 682.012 456.74 680.757 461.864 679.706 467.031 679.414 468.458 679.292 469.914 679.086 471.356 679.395 465.795 680.015 460.243 680.015 454.673 680.015 451.875 679.266 460.223 679.086 463.015 679.059 463.438 679.292 463.838 679.395 464.25 680.84 460.337 682.463 456.485 683.73 452.51 687.417 440.947 683.38 446.874 688.995 440.152 689.201 443.757 689.613 447.355 689.613 450.966 689.613 452.729 689.747 457.813 688.995 456.217 687.477 453.001 687.946 449.176 687.136 445.714 686.498 442.985 685.485 440.358 684.659 437.681 683.318 440.152 681.317 442.368 680.634 445.096 679.833 448.294 677.159 454.034 680.324 454.982 683.391 455.9 682.596 449.009 683.73 446.022 684.227 440.572 684.868 437.329 680.015 452.202 679.631 453.38 679.809 454.673 679.706 455.909 679.395 452.202 680.943 447.814 678.776 444.786 677.391 442.852 676.971 449.234 676.609 451.584 676.342 453.316 676.816 455.085 676.919 456.835 677.641 455.085 678.753 453.448 679.086 451.584 679.785 447.661 679.018 433.876 679.706 450.347 683.632 436.355 682.182 444.053 682.182 421.615 682.182 417.804 682.052 429.239 681.873 433.046 681.741 435.832 679.704 439.069 681.254 441.388 682.647 443.473 682.137 436.454 682.492 433.973 683.898 424.151 682.595 429.135 684.04 424.087 684.556 429.957 683.57 436.16 685.588 441.697 686.828 445.097 686.707 434.496 686.517 430.884 686.394 428.539 685.278 426.353 684.659 424.087 682.699 427.279 680.483 430.329 678.776 433.664 676.282 438.539 676.973 447.256 677.538 428.103 682.181 441.342 681.39 436.123 682.182 443.242 682.285 440.461 682.559 437.682 682.492 434.901 682.454 433.343 683.152 429.372 681.873 430.266 679.893 431.648 680.221 434.798 679.395 437.063 679.189 438.916 678.903 444.485 678.776 442.624 677.289 420.732 675.713 426.151 678.776 416.981 681.628 421.534 683.424 423.931 685.278 429.339 685.751 430.717 685.692 432.223 685.898 433.664 687.24 429.854 689.196 426.207 689.923 422.233 694.527 397.076 689.711 398.178 696.735 372.802 697.489 370.076 699.832 368.064 701.38 365.696 707.779 367.446 714.088 369.563 720.577 370.948 746.054 376.385 746.306 376.203 763.616 378.054 764.689 373.062 767.947 362.653 763.927 357.972 761.314 354.931 756.289 355.501 752.47 354.265 742.974 358.899 732.891 362.49 723.983 368.167 714.208 374.397 714.374 374.005 715.933 378.672 722.744 375.376 729.829 372.591 736.368 368.785 771.782 348.173 756.852 341.749 774.144 352.102 761.577 394.611 764.957 393.537 742.871 430.266 741.593 432.392 739.155 433.562 737.298 435.209 736.678 418.011 736.295 400.802 735.44 383.615 730.821 290.818 725.957 326.965 732.344 286.605 754.987 331.793 751.799 319.695 762.997 391.338 766.252 412.16 765.127 411.049 757.114 422.543 752.511 397.282 749.062 379.456 745.657 351.484 744.21 339.589 743.8 327.592 742.871 315.646 744.213 315.543 746.359 314.106 746.896 315.337 768.356 364.518 762.826 363.708 765.784 420.38 765.681 432.944 766.083 445.522 765.475 458.071 765.448 458.626 764.209 459.166 763.927 458.69 745.286 427.246 709.43 363.533 709.43 363.533 710.565 359.929 710.591 355.762 712.837 352.72 713.893 351.289 717.101 350.321 718.1 351.793 724.058 360.564 727.182 370.948 731.724 380.525 733.754 390.283 752.247 436.704 733.892 452.51 730.12 455.758 724.189 450.245 719.339 449.112 711.567 433.879 680.755 389.152 690.233 363.533 692.906 356.308 703.65 355.912 710.359 352.102 716.242 352.617 723.768 349.545 728.009 353.647 744.494 369.592 742.621 404.928 744.109 423.16 738.433 432.12 734.234 442.204 727.079 450.039 725.191 452.107 719.862 453.521 718.719 450.966 714.187 440.839 714.797 429.133 712.837 418.217 712.089 404.655 698.236 352.344 721.196 335.11 727.15 330.641 735.853 332.433 743.181 331.094 750.406 338.303 760.269 343.609 764.855 352.72 777.403 377.652 790.071 412.771 761.759 434.591 754.391 440.269 743.181 435.827 733.892 436.445 727.286 427.795 717.959 420.655 714.074 410.493 706.233 389.976 700.02 346.794 715.933 325.841 722.046 317.79 734.511 317.808 743.8 313.793 757.011 314.616 771.348 310.876 783.434 316.264 812.889 329.398 822.019 349.778 811.3 378.362 809.091 384.253 801.599 386.395 796.747 390.412 788.594 388.661 779.725 388.923 772.286 385.16 748.689 373.221 750.746 361.818 743.181 338.2 746.793 330.579 748.408 321.641 754.018 315.337 764.667 303.371 771.19 303.107 783.123 300.817 779.821 309.57 778.027 319.05 773.215 327.077 752.467 361.692 750.373 360.692 725.222 380.525 717.93 358.702 742.473 330.342 754.327 317.5 756.895 314.719 760.933 313.793 764.236 311.939 751.518 362.362 757.879 352.785 732.963 395.355 732.356 396.392 730.899 396.591 729.866 397.208 739.9 369.794 749.846 338.943 765.784 314.41 769.81 308.214 777.137 304.935 782.814 300.199 787.981 315.665 785.353 306.269 761.759 340.053 751.778 354.344 739.889 367.215 728.628 380.525 726.463 383.085 719.845 390.542 721.506 387.631 726.944 378.099 734.156 369.681 740.084 360.443 750.88 343.62 759.44 325.287 771.667 309.467 778.409 300.745 801.527 277.757 796.438 287.532 780.407 318.322 753.633 338.103 728.318 359.826 735.234 338.096 736.192 313.474 749.064 294.637 752.16 290.107 760.333 275.928 758.353 281.044 744.857 315.91 714.385 384.232 714.385 384.232 716.013 395.604 714.555 403.061 730.796 380.525 805.744 276.527 758.596 324.054 785.601 297.109 784.382 347.571 786.382 301.01 777.86 378.672 776.812 388.219 767.807 401.896 775.692 407.404 783.104 412.581 779.4 389.728 780.956 380.834 783.22 367.892 785.085 354.883 787.149 341.907 787.664 335.419 787.835 328.895 788.697 322.443 788.755 322.01 789.595 322.934 789.626 323.37 790.428 334.785 790.658 346.232 791.174 357.664 791.278 369.815 791.096 381.972 791.484 394.119 791.938 408.377 790.032 408.583 795.819 403.387 800.371 374.037 801.471 376.754 799.225 344.378 799.053 341.909 797.78 339.642 797.058 337.272 797.161 346.026 797.455 354.78 797.367 363.533 796.932 406.654 795.003 385.865 797.367 407.095 804.348 387.746 801.914 397.346 799.534 359.208 798.715 346.075 796.617 333.053 795.199 319.971 794.966 317.811 794.786 315.646 794.58 313.483 794.406 326.867 794.23 356.669 793.032 368.477 792.323 375.469 790.24 382.256 789.006 389.176 788.588 391.528 788.388 393.913 788.078 396.281 787.664 391.132 788.452 385.743 786.839 380.834 780.448 361.371 764.236 323.678 764.236 323.678 755.707 346.511 746.244 373.915 734.82 395.355 732.55 399.616 728.628 402.769 725.531 406.477 719.5 393.581 719.321 393.865 714.694 370.639 712.257 358.404 712.552 357.509 713.765 350.248" stroke="#2F528F" stroke-width="0.834492" stroke-miterlimit="8" fill="none" fill-rule="evenodd" transform="matrix(1.00213 0 0 1 -532.915 -46.8806)"/><path d="M689.288 262.514 684.64 264.371C684.03 264.603 683.432 264.936 682.781 264.99 682.154 265.042 681.541 264.784 680.921 264.68 682.192 255.8 681.886 261.62 679.991 263.133 679.581 263.462 678.959 262.927 678.442 262.824 679.475 262.205 680.337 260.985 681.541 260.967 698.381 260.713 696.022 257.735 699.825 264.062 696.635 266.768 687.709 275.559 682.781 273.343 680.272 272.217 684.961 267.75 687.429 266.537 691.956 264.313 697.346 264.68 702.304 263.752 706.746 266.228 711.935 267.687 715.63 271.178 725.475 280.484 729.777 291.612 725.237 305.214 724.203 308.307 719.865 308.926 717.18 310.782 715.836 310.267 713.694 310.566 713.15 309.235 707.685 295.865 711.302 284.099 728.335 278.294 739.187 274.596 751.268 278.088 762.734 277.985 770.171 282.111 780.082 283.463 785.047 290.361 788.846 295.641 788.516 304.009 785.667 309.854 777.641 326.319 756.102 328.96 741.661 333.37 736.496 331.926 730.535 332.144 726.166 329.038 717.389 322.797 721.968 308.422 726.786 302.429 729.939 298.506 735.669 297.684 740.111 295.312 743.831 296.447 748.798 295.718 751.268 298.716 762.038 311.785 765.177 327.489 749.099 338.94 739.492 345.781 726.992 347.19 715.94 351.316 711.807 350.181 705.963 351.443 703.544 347.912 696.334 337.39 701.065 303.025 705.403 296.24 709.954 289.121 720.278 288.196 727.715 284.173 736.909 285.927 747.345 284.503 755.297 289.434 771.974 299.773 767.137 328.654 759.945 340.796 754.876 349.353 744.037 352.76 736.083 358.741 727.2 357.814 717.681 359.377 709.432 355.957 695.278 350.089 696.581 322.177 695.487 314.186 697.449 307.069 696.607 298.478 701.375 292.837 713.849 278.076 726.948 286.241 740.731 290.052 751.405 305.248 767.777 319.488 758.705 341.415 755.62 348.873 746.103 351.522 739.802 356.576 729.575 355.751 718.731 357.691 709.121 354.101 690.692 347.216 690.728 325.198 687.119 310.473 691.116 290.962 687.602 274.114 713.77 270.56 722.138 269.423 730.092 274.891 738.252 277.057 750.053 293.46 766.063 310.405 763.664 333.37 762.905 340.629 753.747 344.096 748.789 349.459 739.802 349.15 730.121 352.003 721.828 348.531 706.114 341.952 705.019 303.142 703.853 296.55 706.952 289.743 707.191 280.657 713.15 276.128 738.255 257.053 754.352 280.335 773.89 293.455 780.088 305.523 791.437 316.136 792.484 329.657 795.076 363.127 753.58 355.59 738.252 356.885 730.505 352.347 720.766 350.155 715.01 343.271 705.955 332.441 706.764 293.433 710.361 285.411 712.765 280.053 721.518 281.698 727.095 279.841 733.811 283.864 742.799 285.468 747.239 291.908 759.665 309.932 767.365 340.363 749.719 359.36 743.773 365.762 732.777 363.692 724.307 365.858 717.283 362.145 707.642 361.322 703.233 354.719 694.659 341.879 698.392 309.375 710.361 299.644 716.45 294.694 726.063 299.438 733.914 299.335 741.971 305.007 752.505 308.238 758.085 316.352 768.88 332.048 768.423 362.663 756.536 377.615 742.17 395.686 732.977 394.833 716.869 395.871 709.942 378.148 705.731 372.014 712.221 347.603 713.891 341.32 720.898 337.908 725.237 333.06 728.129 333.37 731.952 331.844 733.914 333.989 745.113 346.236 747.395 365.456 750.958 380.4 742.924 395.809 742.517 409.305 721.828 408.867 717.344 408.771 713.977 404.535 710.052 402.369 709.571 401.658 684.203 371.48 690.528 361.216 694.604 354.603 703.956 353.379 710.672 349.459 715.63 349.562 721.474 346.943 725.546 349.769 734.655 356.09 744.529 391.626 746.309 396.799 743.518 409.877 747.234 419.331 731.434 419.077 728.382 419.028 725.857 416.601 723.067 415.364 721.756 407.838 720.607 410.071 723.377 405.463 723.452 405.338 723.583 405.257 723.687 405.153" stroke="#2F528F" stroke-width="0.834492" stroke-miterlimit="8" fill="none" fill-rule="evenodd" transform="matrix(1.00213 0 0 1 -532.915 -46.8806)"/><path d="M683.622 404.086C682.615 406.6 682.945 405.573 682.077 409.332 681.745 410.767 681.408 412.203 681.15 413.653 680.584 416.833 680.028 420.017 679.604 423.22 679.306 425.473 676.734 430.33 678.987 430.009 681.505 429.649 680.84 425.277 681.767 422.911 682.489 419.105 683.303 415.316 683.93 411.492 686.924 393.292 684.272 406.707 685.477 400.691 684.644 410.901 682.419 431.415 683.004 443.279 683.053 444.291 683.828 445.131 684.24 446.056 686.095 442.558 688.49 439.298 689.803 435.564 698.699 410.274 693.119 374.207 715.454 359.339 712.164 400.407 714.489 383.587 706.182 428.774 705.555 432.188 701.908 441.715 704.019 438.958 710.013 431.133 714.14 421.999 718.236 413.035 765.185 310.271 727.681 383.052 750.068 340.205 749.553 351.726 749.52 363.279 748.523 374.768 747.046 391.79 744.468 408.699 742.651 425.689 742.201 429.894 739.763 442.09 741.724 438.342 749.541 423.399 766.209 359.476 768.921 351.315 770.385 346.904 773.246 343.085 775.41 338.971 772.32 352.138 769.434 365.354 766.139 378.472 761.913 395.292 757.005 411.937 752.849 428.774 751.646 433.652 748.318 448.297 750.068 443.588 781.682 358.529 759.459 391.033 778.81 363.659 779.222 377.238 781 390.844 780.046 404.394 778.404 427.72 773.179 442.894 767.066 463.955 768.508 453.772 770.514 443.651 771.393 433.404 778.065 355.573 770.711 405.113 775.101 376.62 773.711 452.639 774.14 421.674 773.556 469.511 777.092 478.926 775.948 477.494 782.518 449.451 803.895 358.215 783.883 417.668 800.443 371.065 800.794 383.988 801.571 410.15 801.062 417.665 800.912 419.868 799.001 421.573 797.971 423.528 797.662 417.768 797.044 412.015 797.044 406.246 797.044 403.247 797.814 412.201 797.971 415.196 798.638 427.842 799.001 440.502 799.516 453.154 799.619 459.12 799.678 465.088 799.825 471.053 799.883 473.421 802.126 476.865 800.135 478.151 795.554 481.111 789.303 479.719 784.063 481.237 771.146 484.982 777.736 483.326 764.284 486.175 760.163 485.97 756.015 486.087 751.923 485.558 747.234 484.952 742.668 483.614 738.016 482.78 734.631 482.173 731.197 481.861 727.816 481.237 724.498 480.625 721.249 479.666 717.927 479.077 714.856 478.533 708.655 477.842 708.655 477.842 701.167 479.039 700.758 478.265 694.439 482.472 693.512 483.089 691.351 485.393 691.657 484.323 693.475 477.971 701.032 479.785 705.565 479.386 709.337 478.669 712.619 477.941 716.382 477.534 718.746 477.279 721.12 477.122 723.489 476.917L741.106 477.226C743.477 477.226 745.843 476.981 748.214 476.917L775.101 476.299 789.936 475.682C792.411 475.521 797.353 475.066 797.353 475.066 799.516 475.168 801.769 474.752 803.843 475.374 804.346 475.524 803.754 476.44 803.535 476.917 803.127 477.798 802.601 478.632 801.988 479.386 801.253 480.289 800.464 481.178 799.516 481.855 798.986 482.232 798.286 482.285 797.662 482.472 796.203 482.908 795.707 482.87 793.953 483.089 792.511 482.883 791.044 482.808 789.626 482.472 788.863 482.291 788.247 481.583 787.463 481.546 774.905 480.963 762.327 480.929 749.759 480.62 746.154 480.106 742.56 479.499 738.942 479.077 734.163 478.52 723.82 478.061 719.781 477.842 717.514 477.946 715.242 477.958 712.982 478.151 711.632 478.267 710.319 478.751 708.964 478.769L689.185 478.46C688.154 478.357 687.105 478.375 686.095 478.151 677.736 476.296 689.316 477.937 681.15 476.917 679.811 477.329 678.385 477.526 677.132 478.151 676.841 478.297 676.608 478.832 676.823 479.077 677.462 479.807 678.415 480.21 679.295 480.62 680.984 481.407 683.091 481.385 684.858 481.546 711.077 480.576 673.104 481.619 703.092 482.163L727.199 481.855 754.704 481.546C756.249 481.443 757.805 481.444 759.339 481.237 761.622 480.93 763.867 480.389 766.139 480.002 768.71 479.566 771.29 479.18 773.865 478.769 780.108 476.229 785.7 474.681 790.554 469.511 791.494 468.509 791.172 466.836 791.481 465.498 790.966 464.778 790.638 463.878 789.936 463.338 786.996 461.08 779.728 463.185 778.191 463.338 775.766 464.262 760.07 471.388 752.849 471.979 748.536 472.332 744.195 472.162 739.869 472.288L731.525 472.596 708.346 471.362C706.594 471.267 704.84 471.212 703.092 471.053 701.438 470.903 699.795 470.641 698.147 470.436L693.512 469.201C692.164 468.817 688.095 468.055 689.494 467.968 695.795 467.574 706.703 471.056 712.055 471.671 716.457 472.176 720.914 471.889 725.344 471.979L757.794 472.596C765.418 472.391 773.142 473.231 780.664 471.979 785.619 471.155 786.731 466.797 785.3 463.03 784.7 461.453 783.728 459.758 782.21 459.018 779.067 457.485 775.41 457.372 772.011 456.549 766.756 458.092 761.346 459.177 756.249 461.178 749.258 463.923 742.542 467.334 735.852 470.745 709.417 484.223 736.436 471.798 723.799 477.534 714.857 476.948 705.174 477.014 696.293 474.757 690.284 473.229 687.679 471.859 682.385 469.511 681.971 468.683 680.503 466.606 683.004 466.116 687.765 465.184 692.688 465.498 697.529 465.19 710.2 465.498 722.886 465.455 735.543 466.116 753.91 467.074 737.02 467.282 750.996 469.819 753.43 470.261 755.94 470.025 758.413 470.128 761.4 469.819 764.57 470.276 767.375 469.201 777.751 465.228 779.418 462.943 785.918 456.857 785.505 453.977 786.43 450.544 784.681 448.216 783.422 446.538 780.559 446.56 778.501 446.983 772.819 448.148 767.317 450.271 762.121 452.846 750.702 458.504 741.917 466.999 729.671 470.128 728.071 470.536 726.374 470.333 724.726 470.436 721.356 469.937 713.027 469.317 709.892 466.733 705.071 462.762 696.908 446.083 695.366 443.279 700.208 441.118 704.626 436.168 709.892 436.798 723.671 438.45 736.46 444.883 749.45 449.759 762.238 454.561 774.529 460.593 787.155 465.807 791.221 467.487 795.395 468.893 799.516 470.436 801.669 469.898 801.959 470.23 801.371 466.116 800.821 462.272 798.067 455.858 795.19 453.154 788.837 447.184 782.381 449.189 773.865 448.834 714.828 474.997 738.561 469.465 705.874 475.682 697.759 465.873 692.728 461.388 691.348 445.131 690.951 440.446 692.581 434.012 696.911 432.169 706.128 428.248 716.896 430.729 726.889 430.009 732.247 430.729 737.66 431.111 742.959 432.169 743.913 432.359 745.107 432.798 745.432 433.712 746.943 437.972 747.286 442.558 748.214 446.983 747.699 454.697 747.336 462.424 746.669 470.128 746.612 470.776 746.648 472.24 746.051 471.979 715.598 458.716 720.761 460.314 698.147 439.885 698.663 438.033 698.176 435.513 699.692 434.329 706.995 428.633 724.652 435.884 728.744 436.798 737.894 443.444 740.467 442.295 742.033 453.463 742.322 455.523 742.519 458.106 741.106 459.635 739.58 461.285 736.779 460.87 734.616 461.487 718.985 458.166 721.026 459.498 706.492 452.846 705.962 452.603 705.668 452.023 705.255 451.611 717.231 443.43 708.048 448.483 732.143 444.205 739.065 442.976 746.017 441.848 752.849 440.193 758.235 438.887 763.462 436.695 768.611 434.638 769.538 432.375 771.02 430.265 771.393 427.849 772.311 421.885 771.737 413.387 763.976 411.184 756.835 409.157 749.141 410.567 741.724 410.259 722.09 419.942 713.957 421.975 698.457 436.181 696.268 438.187 695.336 441.246 693.512 443.588 688.155 450.464 689.199 449.238 683.004 452.537 681.253 452.434 679.082 453.368 677.75 452.229 676.858 451.465 677.608 449.319 678.677 448.834 683.727 446.542 689.254 445.28 694.748 444.513 703.333 443.315 712.055 443.485 720.709 442.97 733.07 445.645 746.128 446.114 757.794 450.994 825.883 479.473 781.621 476.527 811.878 477.534 812.726 469.063 813.235 467.845 811.26 457.166 810.875 455.081 809.688 453.223 808.788 451.303 803.637 440.313 803.255 440.292 794.263 428.774 793.165 427.369 785.643 419.608 784.681 419.208 780.616 417.517 776.028 417.562 771.701 416.739 766.242 419.825 760.289 422.17 755.322 425.997 718.829 454.108 740.847 445.642 724.107 451.611 710.628 442.189 706.334 439.828 692.894 420.443 689.444 415.467 689.185 408.921 687.33 403.161 710.499 397.902 712.766 393.987 738.633 407.172 746.543 411.204 752.718 421.85 756.867 429.701 758.976 433.689 756.525 430.902 759.031 433.404 760.061 430.214 761.386 427.106 762.121 423.836 771.822 380.719 764.358 402.95 770.774 384.644 771.337 393.706 769.005 413.403 775.101 425.071 775.439 425.716 776.132 426.1 776.646 426.614 776.956 425.174 777.573 423.766 777.573 422.294 777.573 380.13 774.116 341.436 780.046 402.234 780.567 407.574 780.72 412.946 781.283 418.282 781.341 418.832 781.414 419.559 781.901 419.825 782.72 420.271 783.755 420.031 784.681 420.133 786.949 416.636 790.139 413.585 791.481 409.641 793.808 402.802 794.115 395.437 795.498 388.347 795.662 387.515 795.911 386.702 796.117 385.879 796.014 392.462 795.925 399.046 795.808 405.629 795.617 416.328 795.239 427.024 795.19 437.724 795.137 449.143 795.395 460.56 795.498 471.979 795.85 461.268 797.114 423.897 797.044 418.9 796.987 414.867 796.324 426.935 795.808 430.934 791.709 462.728 794.035 438.644 792.099 460.56 792.511 450.583 793.269 440.613 793.335 430.626 793.372 424.96 796.197 409.434 792.408 413.653 780.463 426.952 775.003 444.871 766.448 460.56 764.906 463.389 762.121 469.201 762.121 469.201 763.134 460.6 770.192 436.999 747.904 438.342 739.16 438.868 735.113 450.346 728.126 455.624 726.949 456.512 725.241 456.24 723.799 456.549 726.505 418.725 724.24 419.576 737.397 380.632 738.639 376.954 741.517 374.048 743.578 370.757 741.209 379.912 739.181 389.162 736.469 398.223 733.821 407.074 730.173 415.607 727.507 424.454 726.663 427.256 724.803 435.782 725.962 433.095 729.983 423.772 732.486 413.86 736.161 404.394 752.862 361.375 740.54 370.487 759.958 359.029 757.589 369.008 756.12 379.243 752.849 388.965 728.17 462.337 729.306 457.142 733.07 438.342 733.173 425.277 734.15 412.19 733.379 399.148 732.295 380.804 730.444 370.99 727.816 356.561 717.103 371.991 706.204 387.296 695.675 402.851 691.162 409.519 682.695 423.22 682.695 423.22 685.373 412.933 688.672 402.787 690.73 392.359 696.135 364.978 696.233 369.415 695.057 355.326 687.599 380.065 684.701 384.238 683.004 409.024 682.75 412.731 683.622 416.43 683.93 420.133 685.27 413.242 687.728 406.474 687.949 399.457 688.533 380.874 687.131 371.266 685.167 356.561 683.942 376.15 685.037 369.32 680.222 391.433 675.257 414.237 673.874 412.543 684.24 384.027 686.956 376.557 690.042 369.227 692.894 361.807 693.442 360.379 693.923 358.927 694.439 357.487" stroke="#2F528F" stroke-width="0.834492" stroke-miterlimit="8" fill="none" fill-rule="evenodd" transform="matrix(1.00213 0 0 1 -532.915 -46.8806)"/><path d="M714.116 278.963C710.915 290.431 710.523 303.09 704.514 313.366 702.98 315.989 697.574 311.095 697.08 308.097 695.629 299.302 695.448 289.506 699.248 281.443 702.023 275.555 709.779 273.797 715.046 269.975 721.034 271.111 728.231 269.6 733.011 273.385 745.87 283.566 743.422 298.264 743.852 311.816 735.544 317.616 727.114 327.494 715.046 320.495 709.506 317.283 707.198 310.37 703.274 305.308 703.068 295.183 697.468 283.63 702.655 274.934 717.195 250.561 739.42 272.835 750.976 279.893 753.557 289.707 758.964 299.191 758.719 309.336 758.369 323.911 749.004 335.551 736.108 340.33 732.524 341.658 728.467 340.537 724.647 340.64 712.31 324.181 700.12 313.861 703.585 289.811 704.139 285.962 711.018 287.538 714.735 286.402 723.683 290.579 721.974 287.906 714.116 304.068 705.989 320.782 699.9 325.771 689.027 340.64 687.217 343.115 686.62 346.687 684.071 348.389 682.331 349.549 685.328 344.383 686.239 342.499 687.742 339.391 689.168 338.33 691.504 335.991 691.169 350.115 691.152 357.996 689.645 373.494 689.025 379.891 687.131 392.701 685.619 400.767 685.485 401.485 685.832 399.322 685.929 398.598 686.038 397.772 686.136 396.945 686.239 396.119 685.778 393.126 686.256 388.345 681.902 394.879 680.615 396.811 680.346 399.256 679.424 401.387 678.691 403.084 677.716 404.667 676.946 406.347 675.201 410.156 676.918 407.625 675.087 410.066 675.191 408.722 675.156 407.362 675.398 406.037 675.549 405.204 676.75 400.018 677.566 397.979 677.737 397.549 677.997 397.16 678.186 396.739 679.945 392.776 677.003 398.494 680.663 391.78 680.972 390.127 681.351 388.485 681.592 386.821 681.63 386.558 682.99 374.695 683.76 371.014 684.433 367.801 685.199 364.607 685.929 361.406 686.541 358.718 687.787 353.348 687.787 353.348 688.287 330.37 688.17 342.931 687.787 311.506 687.693 303.758 688.215 295.975 687.477 288.261 687.275 286.141 685.747 284.367 685 282.372 684.69 281.546 684.424 280.702 684.071 279.893 682.978 277.394 681.412 275.077 680.663 272.454 679.26 267.54 681.019 273.584 678.804 266.566 676.674 259.816 679.04 266.963 677.875 263.467 676.328 268.732 674.684 273.605 674.468 279.273 674.291 283.929 674.883 288.59 675.398 293.22 675.506 294.194 675.979 295.094 676.327 296.01 677.115 298.091 678.305 300.04 678.804 302.209 680.112 307.876 679.48 304.883 680.663 311.196 681.189 318.032 681.317 317.917 680.663 327.623 680.321 332.7 679.631 337.748 679.115 342.81 679.424 351.488 679.631 360.171 680.044 368.844 680.147 371.021 680.623 373.174 680.663 375.353 680.805 383.042 680.633 384.662 679.424 391.16 678.943 393.75 676.698 401.264 677.875 398.908 687.441 379.764 682.236 390.75 693.053 365.745 693.87 356.483 695.401 340.835 695.841 330.722 696.154 323.494 696.254 316.259 696.46 309.027 695.532 300.969 695.262 292.806 693.673 284.851 693.273 282.854 692.165 280.856 690.575 279.583L689.027 278.343C687.684 278.86 686.108 278.975 685 279.893 680.319 283.769 679.828 286.267 677.566 291.36 677.772 294.357 677.822 297.368 678.186 300.349 678.34 301.617 678.856 302.816 679.115 304.068 679.579 306.33 679.94 308.613 680.354 310.887 680.457 313.16 680.786 315.433 680.663 317.705 680.214 326.009 679.222 332.998 678.186 340.95 677.445 352.417 677.744 347.354 677.256 356.137 677.359 363.576 677.396 371.015 677.566 378.452 677.604 380.108 677.806 381.757 677.875 383.411 678.634 401.379 675.939 395.345 679.424 402.318 684.777 395.048 689.024 389.92 692.124 380.312 694.544 372.811 695.015 364.815 696.46 357.067 696.667 353.038 696.83 349.007 697.08 344.979 697.45 338.985 698.318 327.003 698.318 327.003 698.215 324.627 699.303 317.879 698.009 319.875 694.399 325.444 692.078 331.941 690.885 338.471 688.537 351.325 687.477 377.522 687.477 377.522 687.949 382.243 688.383 391.222 692.124 369.154 693.422 361.498 693.156 353.658 693.673 345.909 693.363 343.43 693.33 340.9 692.744 338.471 692.589 337.828 691.99 336.472 691.504 336.921 688.64 339.574 686.404 342.88 684.38 346.22 682.559 349.224 681.489 352.625 680.044 355.827 681.283 356.964 682.257 359.989 683.76 359.237 686.068 358.082 692.017 349.952 693.363 345.909 693.481 345.556 692.724 346.296 692.433 346.529 689.006 349.293 685.65 352.146 682.212 354.898 681.518 355.452 680.766 355.93 680.044 356.447 681.695 353.658 683.48 350.942 685 348.079 687.922 342.57 690.687 336.976 693.363 331.342 693.686 330.663 694.499 328.626 693.982 329.173 689.903 333.487 679.732 348.052 682.521 342.81 686.754 334.855 691.115 326.966 695.221 318.945 697.16 315.158 690.928 326.297 689.027 330.102L686.239 335.681C685.467 338.771 684.322 342.829 690.265 329.793 691.81 326.403 692.744 322.767 693.982 319.255 693.826 318.786 693.312 315.591 691.504 316.775 686.148 320.284 676.327 328.553 676.327 328.553 677.939 330.973 677.711 331.293 681.592 325.143 684.231 320.964 685.929 316.259 688.097 311.816 688.51 309.544 691.152 303.57 689.336 304.997 686.285 307.397 685.546 311.777 683.76 315.226 673.085 335.853 690.344 305.502 691.195 304.068 692.433 296.939 693.55 289.788 694.912 282.682 694.999 282.229 695.773 281.049 695.531 281.443 691.986 287.207 688.19 292.831 685 298.799 683.426 301.743 682.474 304.979 681.283 308.097 681.131 308.495 680.797 309.725 680.973 309.336 682.695 305.545 684.277 301.692 685.929 297.87 686.859 290.327 688.865 282.842 688.716 275.244 688.668 272.748 686.468 279.714 685.619 282.063 684.708 284.585 684.121 287.214 683.451 289.811 683.294 290.419 683.074 292.296 683.141 291.671 686.197 263.008 690.296 259.206 680.044 276.484 679.321 278.963 678.456 286.439 677.875 283.922 676.953 279.924 677.923 271.047 678.495 265.326 679.521 284.838 678.561 277.26 680.044 266.876 680.388 264.468 681.077 262.123 681.592 259.748 682.212 260.883 682.912 261.98 683.451 263.156 684.266 264.935 684.739 266.401 685.309 268.115 685.413 264.396 685.354 260.669 685.619 256.958 685.666 256.306 685.642 254.833 686.239 255.098 687.39 255.61 687.808 257.088 688.407 258.197 691.115 263.209 692.069 265.689 693.982 270.285 699.089 266.708 700.41 265.609 707.921 262.227 708.401 262.011 708.953 262.433 709.47 262.536 708.541 265.326 707.973 268.263 706.682 270.905 705.675 272.966 700.391 276.846 702.655 276.484 707.132 275.767 710.307 271.562 714.426 269.665 716.86 268.544 719.588 268.218 722.17 267.495 713.806 266.979 705.392 267.004 697.08 265.946 693.154 265.447 686.972 266.568 685.619 262.847 684.454 259.641 692.433 262.64 695.841 262.536L721.55 263.776C726 264.059 739.249 265.851 734.869 265.016 728.327 263.769 721.646 263.421 715.046 262.536 710.081 261.872 705.133 261.09 700.177 260.367 705.856 259.748 711.518 258.939 717.214 258.508 744.694 256.424 733.13 259.914 744.781 256.028L718.143 253.858C711.951 253.392 705.392 250.496 699.558 252.619 694.74 254.371 709.631 254.623 714.735 255.098 726.165 256.16 747.374 256.807 760.268 257.268 754.28 258.197 748.313 259.281 742.302 260.057 730.122 261.63 726.806 261.847 717.833 262.536 766.362 265.234 738.005 264.019 791.243 265.326L801.775 265.636C793.824 265.636 785.874 265.43 777.924 265.326L767.392 264.396C771.892 261.079 785.363 255.615 783.809 260.987 781.495 268.985 770.752 271.326 763.986 276.173 754.742 282.798 745.142 288.91 735.798 295.39 734.712 296.143 731.745 298.784 732.701 297.87 743.352 287.675 751.828 280.875 764.915 272.145 767.873 270.171 771.316 269.046 774.517 267.495 775.136 272.248 775.96 276.979 776.375 281.752 779.443 317.056 775.951 299.99 779.473 315.845 779.576 308.201 779.921 300.555 779.783 292.911 779.61 283.398 772.57 271.797 778.544 264.396 783.122 258.724 783.49 278.119 786.288 284.851 787.83 288.564 789.797 292.083 791.553 295.7 793.721 290.018 796.379 284.499 798.058 278.653 798.773 276.163 798.434 268.326 798.677 270.905 802.621 312.839 797.236 292.865 804.253 322.355 804.435 323.12 804.872 323.801 805.182 324.524 808.189 309.477 808.622 308.122 800.846 280.203 798.711 272.537 800.432 296.113 800.226 304.068 802.45 343.392 798.776 325.974 807.04 352.728 807.166 353.134 807.247 353.554 807.35 353.967 807.763 345.909 808.59 337.861 808.59 329.793 808.59 317.316 808.298 315.96 807.04 308.407 804.067 322.287 803.336 322.806 803.014 338.16 802.925 342.4 803.376 346.635 803.633 350.868 803.994 356.83 804.564 362.285 805.491 368.224 806.026 371.648 806.836 375.026 807.35 378.452 808.031 382.994 808.255 386.502 808.59 390.85 807.761 394.163 807.413 396.18 805.182 399.528 800.463 406.61 802.614 403.191 798.677 409.756 798.367 411.409 798.21 413.097 797.747 414.715 797.582 415.295 797.047 415.707 796.818 416.265 796.322 417.473 795.993 418.744 795.579 419.984 795.89 421.327 795.277 424.63 796.509 424.013 798.968 422.783 799.961 419.672 801.155 417.194 804.212 410.852 806.524 404.177 809.208 397.668 809.725 394.466 813.219 385.949 810.758 388.061 805.205 392.823 806.769 416.895 806.731 419.364 805.905 401.698 805.769 383.985 804.253 366.365 803.597 358.733 801.787 336.24 800.226 343.739 796.429 361.978 798.87 371.332 802.085 385.271 803.014 381.758 804.872 378.366 804.872 374.733 804.872 365.8 803.644 356.874 802.085 348.079 801.65 345.629 801.671 353.038 801.465 355.518 801.568 355.827 801.749 356.772 801.775 356.447 802.005 353.562 802.085 347.769 802.085 347.769" stroke="#2F528F" stroke-width="0.834492" stroke-miterlimit="8" fill="none" fill-rule="evenodd" transform="matrix(1.00213 0 0 1 -532.915 -46.8806)"/></g></svg>